<mxfile host="app.diagrams.net" modified="2024-04-09T07:18:24.746Z" agent="Mozilla/5.0 (Windows NT 10.0; Win64; x64; rv:124.0) Gecko/20100101 Firefox/124.0" version="24.2.3" etag="4IwbA8CR8SXYRFFoEn3o" type="github">
  <diagram name="Page-1" id="0IvOuH_1MspCpseZxFqU">
    <mxGraphModel>
      <root>
        <mxCell id="0" />
        <mxCell id="1" parent="0" />
      </root>
    </mxGraphModel>
  </diagram>
</mxfile>
